<svg xmlns="http://www.w3.org/2000/svg" xmlns:xlink="http://www.w3.org/1999/xlink" width="452" zoomAndPan="magnify" viewBox="0 0 339 233.999995" height="312" preserveAspectRatio="xMidYMid meet" version="1.2"><defs><clipPath id="8c3b064324"><path d="M 0 0 L 338.269531 0 L 338.269531 233.917969 L 0 233.917969 Z M 0 0 "/></clipPath><clipPath id="2d6b295bc6"><path d="M 0 0 L 338.269531 0 L 338.269531 233.917969 L 0 233.917969 Z M 0 0 "/></clipPath><clipPath id="4df700c648"><rect x="0" width="339" y="0" height="234"/></clipPath><clipPath id="fc7f257df1"><path d="M 39.429688 35.960938 L 201.429688 35.960938 L 201.429688 197.960938 L 39.429688 197.960938 Z M 39.429688 35.960938 "/></clipPath><clipPath id="1c25383b31"><path d="M 0.429688 0.960938 L 162.429688 0.960938 L 162.429688 162.960938 L 0.429688 162.960938 Z M 0.429688 0.960938 "/></clipPath><clipPath id="dabd56e06a"><rect x="0" width="163" y="0" height="163"/></clipPath></defs><g id="ce9534c198"><g clip-rule="nonzero" clip-path="url(#8c3b064324)"><g transform="matrix(1,0,0,1,0,0)"><g clip-path="url(#4df700c648)"><g clip-rule="nonzero" clip-path="url(#2d6b295bc6)"><path style=" stroke:none;fill-rule:nonzero;fill:#dce2e2;fill-opacity:1;" d="M 0 0 L 338.085938 0 L 338.085938 233.917969 L 0 233.917969 Z M 0 0 "/></g></g></g></g><g clip-rule="nonzero" clip-path="url(#fc7f257df1)"><g transform="matrix(1,0,0,1,39,35)"><g clip-path="url(#dabd56e06a)"><g clip-rule="nonzero" clip-path="url(#1c25383b31)"><path style=" stroke:none;fill-rule:nonzero;fill:#dce2e2;fill-opacity:1;" d="M 0.429688 0.960938 L 162.429688 0.960938 L 162.429688 162.960938 L 0.429688 162.960938 Z M 0.429688 0.960938 "/></g></g></g></g></g></svg>